<svg xmlns="http://www.w3.org/2000/svg" viewBox="0 0 900 660" width="900" height="660" data-cost="18" font-family="Verdana, Arial, sans-serif">
<rect x="0" y="0" width="900" height="660" fill="#eef7ff" rx="24"/>
<line x1="450.0" y1="110.0" x2="653.5" y2="462.5" stroke="#c7d2e0" stroke-width="2" stroke-dasharray="6,6"/>
<line x1="653.5" y1="462.5" x2="246.5" y2="462.5" stroke="#c7d2e0" stroke-width="2" stroke-dasharray="6,6"/>
<line x1="246.5" y1="462.5" x2="653.5" y2="227.5" stroke="#c7d2e0" stroke-width="2" stroke-dasharray="6,6"/>
<line x1="653.5" y1="227.5" x2="450.0" y2="580.0" stroke="#c7d2e0" stroke-width="2" stroke-dasharray="6,6"/>
<line x1="450.0" y1="580.0" x2="246.5" y2="227.5" stroke="#c7d2e0" stroke-width="2" stroke-dasharray="6,6"/>
<line x1="246.5" y1="227.5" x2="450.0" y2="110.0" stroke="#c7d2e0" stroke-width="2" stroke-dasharray="6,6"/>
<line x1="450.0" y1="110.0" x2="653.5" y2="227.5" stroke="#c7d2e0" stroke-width="2" stroke-dasharray="6,6"/>
<line x1="450.0" y1="110.0" x2="450.0" y2="580.0" stroke="#c7d2e0" stroke-width="2" stroke-dasharray="6,6"/>
<line x1="450.0" y1="110.0" x2="246.5" y2="462.5" stroke="#c7d2e0" stroke-width="2" stroke-dasharray="6,6"/>
<line x1="653.5" y1="227.5" x2="653.5" y2="462.5" stroke="#c7d2e0" stroke-width="2" stroke-dasharray="6,6"/>
<line x1="653.5" y1="227.5" x2="246.5" y2="227.5" stroke="#c7d2e0" stroke-width="2" stroke-dasharray="6,6"/>
<line x1="653.5" y1="462.5" x2="450.0" y2="580.0" stroke="#c7d2e0" stroke-width="2" stroke-dasharray="6,6"/>
<line x1="653.5" y1="462.5" x2="246.5" y2="227.5" stroke="#c7d2e0" stroke-width="2" stroke-dasharray="6,6"/>
<line x1="450.0" y1="580.0" x2="246.5" y2="462.5" stroke="#c7d2e0" stroke-width="2" stroke-dasharray="6,6"/>
<line x1="246.5" y1="462.5" x2="246.5" y2="227.5" stroke="#c7d2e0" stroke-width="2" stroke-dasharray="6,6"/>
<polyline points="450.0,110.0 653.5,462.5 246.5,462.5 653.5,227.5 450.0,580.0 246.5,227.5 450.0,110.0" fill="none" stroke="#e63946" stroke-width="7" stroke-linecap="round" stroke-linejoin="round" class="tour-path" style="stroke-dasharray:2333;stroke-dashoffset:2333;"/>
<g><rect x="499.1" y="209.8" width="32" height="24" rx="7" fill="#fff5f5" stroke="#e63946" stroke-width="1.5"/><text x="515.1" y="227.8" text-anchor="middle" font-size="16" font-weight="bold" fill="#e63946">4</text></g>
<g><rect x="434.0" y="449.5" width="32" height="24" rx="7" fill="#fff5f5" stroke="#e63946" stroke-width="1.5"/><text x="450.0" y="467.5" text-anchor="middle" font-size="16" font-weight="bold" fill="#e63946">2</text></g>
<g><rect x="434.0" y="332.0" width="32" height="24" rx="7" fill="#fff5f5" stroke="#e63946" stroke-width="1.5"/><text x="450.0" y="350.0" text-anchor="middle" font-size="16" font-weight="bold" fill="#e63946">4</text></g>
<g><rect x="535.8" y="390.8" width="32" height="24" rx="7" fill="#fff5f5" stroke="#e63946" stroke-width="1.5"/><text x="551.8" y="408.8" text-anchor="middle" font-size="16" font-weight="bold" fill="#e63946">2</text></g>
<g><rect x="295.6" y="327.3" width="32" height="24" rx="7" fill="#fff5f5" stroke="#e63946" stroke-width="1.5"/><text x="311.6" y="345.3" text-anchor="middle" font-size="16" font-weight="bold" fill="#e63946">4</text></g>
<g><rect x="332.2" y="155.8" width="32" height="24" rx="7" fill="#fff5f5" stroke="#e63946" stroke-width="1.5"/><text x="348.2" y="173.8" text-anchor="middle" font-size="16" font-weight="bold" fill="#e63946">2</text></g>

    <g>
      <rect x="412.0" y="108.0" width="76.0" height="50.0"
            fill="#fff7e6" stroke="#e63946" stroke-width="5"/>
      <path d="M 412.0 86.0 L 424.7 86.0 L 424.7 108.0 A 6.3 6.3 0 0 1 412.0 108.0 Z" fill="#e63946" stroke="#b5121b" stroke-width="1.5"/><path d="M 424.7 86.0 L 437.3 86.0 L 437.3 108.0 A 6.3 6.3 0 0 1 424.7 108.0 Z" fill="#ffffff" stroke="#b5121b" stroke-width="1.5"/><path d="M 437.3 86.0 L 450.0 86.0 L 450.0 108.0 A 6.3 6.3 0 0 1 437.3 108.0 Z" fill="#e63946" stroke="#b5121b" stroke-width="1.5"/><path d="M 450.0 86.0 L 462.7 86.0 L 462.7 108.0 A 6.3 6.3 0 0 1 450.0 108.0 Z" fill="#ffffff" stroke="#b5121b" stroke-width="1.5"/><path d="M 462.7 86.0 L 475.3 86.0 L 475.3 108.0 A 6.3 6.3 0 0 1 462.7 108.0 Z" fill="#e63946" stroke="#b5121b" stroke-width="1.5"/><path d="M 475.3 86.0 L 488.0 86.0 L 488.0 108.0 A 6.3 6.3 0 0 1 475.3 108.0 Z" fill="#ffffff" stroke="#b5121b" stroke-width="1.5"/>
      <rect x="412.0" y="76.0" width="76.0" height="10"
            fill="#e63946"/>
      <circle cx="450.0" cy="129.0" r="16.8"
              fill="#ffffff" stroke="#e63946" stroke-width="4"/>
      <path d="M 450.0 117.8
               L 460.4 136.2
               A 12.8 12.8 0 0 1 439.6 136.2 Z"
            fill="#ffd166" stroke="#e63946" stroke-width="3" stroke-linejoin="round"/>
      <circle cx="450.0" cy="129.0" r="2.0" fill="#e63946"/>
      <rect x="441.2" y="133.2" width="17.6" height="24.8"
            fill="#e63946" stroke="#7a1620" stroke-width="2"/>
      <circle cx="455.6" cy="146.0" r="3" fill="#ffe6a8"/>
    </g>
<text x="450.0" y="68.0" text-anchor="middle" font-size="18" font-weight="bold" fill="#e63946">Pizzaria</text>

    <g>
      <rect x="635.1" y="222.7" width="36.8" height="33.6"
            rx="6" fill="#fff7e6" stroke="#ff8fa3" stroke-width="5"/>
      <polygon points="630.7,222.7 653.5,198.7 676.3,222.7"
               fill="#ff8fa3" stroke="#ff8fa3" stroke-width="4" stroke-linejoin="round"/>
      <rect x="648.4" y="238.7" width="10.2" height="17.6"
            fill="#ff8fa3"/>
    </g>
<text x="653.5" y="285.5" text-anchor="middle" font-size="18" font-weight="bold" fill="#2b2d42">Ana</text>

    <g>
      <rect x="635.1" y="457.7" width="36.8" height="33.6"
            rx="6" fill="#fff7e6" stroke="#4ecdc4" stroke-width="5"/>
      <polygon points="630.7,457.7 653.5,433.7 676.3,457.7"
               fill="#4ecdc4" stroke="#4ecdc4" stroke-width="4" stroke-linejoin="round"/>
      <rect x="648.4" y="473.7" width="10.2" height="17.6"
            fill="#4ecdc4"/>
    </g>
<text x="653.5" y="520.5" text-anchor="middle" font-size="18" font-weight="bold" fill="#2b2d42">Bruno</text>

    <g>
      <rect x="431.6" y="575.2" width="36.8" height="33.6"
            rx="6" fill="#fff7e6" stroke="#ffd166" stroke-width="5"/>
      <polygon points="427.2,575.2 450.0,551.2 472.8,575.2"
               fill="#ffd166" stroke="#ffd166" stroke-width="4" stroke-linejoin="round"/>
      <rect x="444.9" y="591.2" width="10.2" height="17.6"
            fill="#ffd166"/>
    </g>
<text x="450.0" y="638.0" text-anchor="middle" font-size="18" font-weight="bold" fill="#2b2d42">Carla</text>

    <g>
      <rect x="228.1" y="457.7" width="36.8" height="33.6"
            rx="6" fill="#fff7e6" stroke="#6bcb77" stroke-width="5"/>
      <polygon points="223.7,457.7 246.5,433.7 269.3,457.7"
               fill="#6bcb77" stroke="#6bcb77" stroke-width="4" stroke-linejoin="round"/>
      <rect x="241.4" y="473.7" width="10.2" height="17.6"
            fill="#6bcb77"/>
    </g>
<text x="246.5" y="520.5" text-anchor="middle" font-size="18" font-weight="bold" fill="#2b2d42">Diego</text>

    <g>
      <rect x="228.1" y="222.7" width="36.8" height="33.6"
            rx="6" fill="#fff7e6" stroke="#4d96ff" stroke-width="5"/>
      <polygon points="223.7,222.7 246.5,198.7 269.3,222.7"
               fill="#4d96ff" stroke="#4d96ff" stroke-width="4" stroke-linejoin="round"/>
      <rect x="241.4" y="238.7" width="10.2" height="17.6"
            fill="#4d96ff"/>
    </g>
<text x="246.5" y="285.5" text-anchor="middle" font-size="18" font-weight="bold" fill="#2b2d42">Elisa</text>
</svg>